# Blender 4.0.2
# www.blender.org
mtllib castle.mtl
o Cube
v -1.000000 0.007481 1.000000
v -1.000000 2.007481 1.000000
v -1.000000 0.007481 -1.000000
v -1.000000 2.007481 -1.000000
v 1.000000 0.007481 1.000000
v 1.000000 2.007481 1.000000
v 1.000000 0.007481 -1.000000
v 1.000000 2.007481 -1.000000
v -1.483342 2.007481 1.483342
v -1.483342 2.007481 -1.483342
v 1.483342 2.007481 -1.483342
v 1.483342 2.007481 1.483342
v -1.483342 2.401293 1.483342
v -1.483342 2.401293 -1.483342
v 1.483342 2.401293 -1.483342
v 1.483342 2.401293 1.483342
v -0.926713 2.401293 0.926713
v -0.926713 2.401293 -0.926713
v 0.926713 2.401293 -0.926713
v 0.926713 2.401293 0.926713
v -0.926713 1.862038 0.926713
v -0.926713 1.862038 -0.926713
v 0.926713 1.862038 -0.926713
v 0.926713 1.862038 0.926713
v -1.623708 1.693143 1.601784
v -1.623708 2.494633 1.601784
v -1.623708 1.693143 0.800293
v -1.623708 2.494633 0.800293
v -0.822218 1.693143 1.601784
v -0.822218 2.494633 1.601784
v -0.822218 1.693143 0.800293
v -0.822218 2.494633 0.800293
v -0.390371 1.693143 1.601784
v -0.390371 2.494633 1.601784
v -0.390371 1.693143 0.800293
v -0.390371 2.494633 0.800293
v 0.411120 1.693143 1.601784
v 0.411120 2.494633 1.601784
v 0.411120 1.693143 0.800293
v 0.411120 2.494633 0.800293
v 0.847586 1.693143 1.601784
v 0.847586 2.494633 1.601784
v 0.847586 1.693143 0.800293
v 0.847586 2.494633 0.800293
v 1.649077 1.693143 1.601784
v 1.649077 2.494633 1.601784
v 1.649077 1.693143 0.800293
v 1.649077 2.494633 0.800293
v -1.623708 1.693143 -0.815643
v -1.623708 2.494633 -0.815643
v -1.623708 1.693143 -1.617134
v -1.623708 2.494633 -1.617134
v -0.822218 1.693143 -0.815643
v -0.822218 2.494633 -0.815643
v -0.822218 1.693143 -1.617134
v -0.822218 2.494633 -1.617134
v -0.390371 1.693143 -0.815643
v -0.390371 2.494633 -0.815643
v -0.390371 1.693143 -1.617134
v -0.390371 2.494633 -1.617134
v 0.411120 1.693143 -0.815643
v 0.411120 2.494633 -0.815643
v 0.411120 1.693143 -1.617134
v 0.411120 2.494633 -1.617134
v 0.847586 1.693143 -0.815643
v 0.847586 2.494633 -0.815643
v 0.847586 1.693143 -1.617134
v 0.847586 2.494633 -1.617134
v 1.649077 1.693143 -0.815643
v 1.649077 2.494633 -0.815643
v 1.649077 1.693143 -1.617134
v 1.649077 2.494633 -1.617134
v -1.623708 1.693143 0.420512
v -1.623708 2.494633 0.420512
v -1.623708 1.693143 -0.380979
v -1.623708 2.494633 -0.380979
v -0.822218 1.693143 0.420512
v -0.822218 2.494633 0.420512
v -0.822218 1.693143 -0.380979
v -0.822218 2.494633 -0.380979
v -0.748099 1.725738 -1.125919
v -0.748099 -0.012229 -1.125919
v -0.748099 1.725738 -0.823046
v -0.748099 -0.012229 -0.823046
v -1.050972 1.725738 -1.125919
v -1.050972 -0.012229 -1.125919
v -1.050972 1.725738 -0.823046
v -1.050972 -0.012229 -0.823046
v 0.847586 1.693143 0.420512
v 0.847586 2.494633 0.420512
v 0.847586 1.693143 -0.380979
v 0.847586 2.494633 -0.380979
v 1.649077 1.693143 0.420512
v 1.649077 2.494633 0.420512
v 1.649077 1.693143 -0.380979
v 1.649077 2.494633 -0.380979
v -0.748099 1.725738 0.786226
v -0.748099 -0.012229 0.786226
v -0.748099 1.725738 1.089099
v -0.748099 -0.012229 1.089099
v -1.050972 1.725738 0.786226
v -1.050972 -0.012229 0.786226
v -1.050972 1.725738 1.089099
v -1.050972 -0.012229 1.089099
v 1.154286 1.725738 -1.125919
v 1.154286 -0.012229 -1.125919
v 1.154286 1.725738 -0.823046
v 1.154286 -0.012229 -0.823046
v 0.851413 1.725738 -1.125919
v 0.851413 -0.012229 -1.125919
v 0.851413 1.725738 -0.823046
v 0.851413 -0.012229 -0.823046
v 1.154286 1.725738 0.786226
v 1.154286 -0.012229 0.786226
v 1.154286 1.725738 1.089099
v 1.154286 -0.012229 1.089099
v 0.851413 1.725738 0.786226
v 0.851413 -0.012229 0.786226
v 0.851413 1.725738 1.089099
v 0.851413 -0.012229 1.089099
v -0.201335 0.592867 0.924374
v -0.201335 0.017687 0.924374
v -0.201335 0.592867 1.119065
v -0.201335 0.017687 1.119065
v -0.396026 0.592867 0.924374
v -0.396026 0.017687 0.924374
v -0.396026 0.592867 1.119065
v -0.396026 0.017687 1.119065
v 0.417997 0.592867 0.924374
v 0.417997 0.017687 0.924374
v 0.417997 0.592867 1.119065
v 0.417997 0.017687 1.119065
v 0.223306 0.592867 0.924374
v 0.223306 0.017687 0.924374
v 0.223306 0.592867 1.119065
v 0.223306 0.017687 1.119065
v 0.309425 0.394179 0.924374
v -0.265756 0.394179 0.924374
v 0.309425 0.394179 1.119065
v -0.265756 0.394179 1.119065
v 0.309425 0.588870 0.924374
v -0.265756 0.588871 0.924374
v 0.309425 0.588870 1.119065
v -0.265756 0.588871 1.119065
v 0.666667 0.007481 -1.000000
v 0.333333 0.007481 -1.000000
v -0.000000 0.007481 -1.000000
v -0.333333 0.007481 -1.000000
v -0.666667 0.007481 -1.000000
v -0.666667 2.007481 -1.000000
v -0.333333 2.007481 -1.000000
v 0.000000 2.007481 -1.000000
v 0.333333 2.007481 -1.000000
v 0.666667 2.007481 -1.000000
v -0.666667 0.007481 1.000000
v -0.333333 0.007481 1.000000
v 0.000000 0.007481 1.000000
v 0.333333 0.007481 1.000000
v 0.666667 0.007481 1.000000
v 0.666667 2.007481 1.000000
v 0.333333 2.007481 1.000000
v -0.000000 2.007481 1.000000
v -0.333333 2.007481 1.000000
v -0.666667 2.007481 1.000000
v -0.988895 2.007481 -1.483342
v -0.494447 2.007481 -1.483342
v 0.000000 2.007481 -1.483342
v 0.494447 2.007481 -1.483342
v 0.988895 2.007481 -1.483342
v 0.988895 2.007481 1.483342
v 0.494447 2.007481 1.483342
v -0.000000 2.007481 1.483342
v -0.494447 2.007481 1.483342
v -0.988895 2.007481 1.483342
v -0.988895 2.401293 -1.483342
v -0.494447 2.401293 -1.483342
v 0.000000 2.401293 -1.483342
v 0.494447 2.401293 -1.483342
v 0.988895 2.401293 -1.483342
v 0.988895 2.401293 1.483342
v 0.494447 2.401293 1.483342
v -0.000000 2.401293 1.483342
v -0.494447 2.401293 1.483342
v -0.988895 2.401293 1.483342
v -0.617809 2.401293 -0.926713
v -0.308904 2.401293 -0.926713
v 0.000000 2.401293 -0.926713
v 0.308904 2.401293 -0.926713
v 0.617809 2.401293 -0.926713
v 0.617809 2.401293 0.926713
v 0.308904 2.401293 0.926713
v 0.000000 2.401293 0.926713
v -0.308904 2.401293 0.926713
v -0.617809 2.401293 0.926713
v -0.617809 1.862038 -0.926713
v -0.308904 1.862038 -0.926713
v 0.000000 1.862038 -0.926713
v 0.308904 1.862038 -0.926713
v 0.617809 1.862038 -0.926713
v 0.617809 1.862038 0.926713
v 0.308904 1.862038 0.926713
v 0.000000 1.862038 0.926713
v -0.308904 1.862038 0.926713
v -0.617809 1.862038 0.926713
v -1.000000 0.340814 1.000000
v -1.000000 0.674148 1.000000
v -1.000000 1.007481 1.000000
v -1.000000 1.340814 1.000000
v -1.000000 1.674148 1.000000
v -1.000000 1.674147 -1.000000
v -1.000000 1.340814 -1.000000
v -1.000000 1.007481 -1.000000
v -1.000000 0.674147 -1.000000
v -1.000000 0.340814 -1.000000
v 1.000000 1.674147 -1.000000
v 1.000000 1.340814 -1.000000
v 1.000000 1.007481 -1.000000
v 1.000000 0.674147 -1.000000
v 1.000000 0.340814 -1.000000
v 1.000000 1.674147 1.000000
v 1.000000 1.340814 1.000000
v 1.000000 1.007481 1.000000
v 1.000000 0.674147 1.000000
v 1.000000 0.340814 1.000000
v 0.666667 1.674147 1.000000
v 0.666667 1.340814 1.000000
v 0.666667 1.007481 1.000000
v 0.666667 0.674147 1.000000
v 0.666667 0.340814 1.000000
v 0.333333 1.674147 1.000000
v 0.333333 1.340814 1.000000
v 0.333333 1.007481 1.000000
v 0.333333 0.674147 1.000000
v 0.333333 0.340814 1.000000
v -0.000000 1.674147 1.000000
v -0.000000 1.340814 1.000000
v 0.000000 1.007481 1.000000
v 0.000000 0.674147 1.000000
v 0.000000 0.340814 1.000000
v -0.333333 1.674147 1.000000
v -0.333333 1.340814 1.000000
v -0.333333 1.007481 1.000000
v -0.333333 0.674147 1.000000
v -0.333333 0.340814 1.000000
v -0.666667 1.674147 1.000000
v -0.666667 1.340814 1.000000
v -0.666667 1.007481 1.000000
v -0.666667 0.674147 1.000000
v -0.666667 0.340814 1.000000
v -0.666667 1.674147 -1.000000
v -0.666667 1.340814 -1.000000
v -0.666667 1.007481 -1.000000
v -0.666667 0.674147 -1.000000
v -0.666667 0.340814 -1.000000
v -0.333333 1.674147 -1.000000
v -0.333333 1.340814 -1.000000
v -0.333333 1.007481 -1.000000
v -0.333333 0.674147 -1.000000
v -0.333333 0.340814 -1.000000
v 0.000000 1.674147 -1.000000
v 0.000000 1.340814 -1.000000
v -0.000000 1.007481 -1.000000
v -0.000000 0.674147 -1.000000
v -0.000000 0.340814 -1.000000
v 0.333333 1.674147 -1.000000
v 0.333333 1.340814 -1.000000
v 0.333333 1.007481 -1.000000
v 0.333333 0.674147 -1.000000
v 0.333333 0.340814 -1.000000
v 0.666667 1.674147 -1.000000
v 0.666667 1.340814 -1.000000
v 0.666667 1.007481 -1.000000
v 0.666667 0.674147 -1.000000
v 0.666667 0.340814 -1.000000
v 0.666667 1.340814 0.831723
v 0.666667 1.007481 0.831723
v 0.333333 1.340814 0.831723
v 0.333333 1.007481 0.831723
v -0.333333 1.340814 0.831723
v -0.333333 1.007481 0.831723
v -0.666667 1.340814 0.831723
v -0.666667 1.007481 0.831723
vn -1.0000 -0.0000 -0.0000
vn -0.0000 -0.0000 -1.0000
vn 1.0000 -0.0000 -0.0000
vn -0.0000 -0.0000 1.0000
vn -0.0000 -1.0000 -0.0000
vn -0.0000 1.0000 -0.0000
vt 0.022017 0.437194
vt 0.022017 0.419794
vt 0.126413 0.419794
vt 0.126413 0.437194
vt 0.257443 0.437194
vt 0.257443 0.419794
vt 0.274843 0.419794
vt 0.274843 0.437194
vt 0.437194 0.126413
vt 0.419794 0.126413
vt 0.419794 0.022017
vt 0.437194 0.022017
vt 0.134243 0.064646
vt 0.134243 0.047246
vt 0.151643 0.047246
vt 0.151643 0.064646
vt 0.524191 0.257443
vt 0.524191 0.274843
vt 0.419794 0.274843
vt 0.419794 0.257443
vt 0.151643 0.151643
vt 0.176872 0.022017
vt 0.176872 0.176872
vt 0.349952 0.022017
vt 0.375761 0.022017
vt 0.375761 0.042573
vt 0.349952 0.042573
vt 0.064646 0.047246
vt 0.047246 0.047246
vt 0.022017 0.022017
vt 0.047826 0.022017
vt 0.134243 0.151643
vt 0.151063 0.176872
vt 0.047246 0.151643
vt 0.022017 0.176872
vt 0.176872 0.220905
vt 0.176872 0.375761
vt 0.147817 0.346706
vt 0.147817 0.249960
vt 0.349952 0.086606
vt 0.375761 0.086606
vt 0.375761 0.107162
vt 0.349952 0.107162
vt 0.220905 0.151195
vt 0.375761 0.151195
vt 0.375761 0.171752
vt 0.220905 0.171752
vt 0.220905 0.215785
vt 0.375761 0.215785
vt 0.375761 0.236341
vt 0.220905 0.236341
vt 0.317651 0.308522
vt 0.220905 0.308522
vt 0.220905 0.280374
vt 0.317651 0.280374
vt 0.022017 0.375761
vt 0.022017 0.220905
vt 0.051072 0.249960
vt 0.051072 0.346706
vt 0.151063 0.220905
vt 0.131693 0.249960
vt 0.047826 0.375761
vt 0.067196 0.346706
vt 0.516540 0.399497
vt 0.516540 0.415621
vt 0.419794 0.415621
vt 0.419794 0.399497
vt 0.516540 0.487803
vt 0.419794 0.487803
vt 0.419794 0.459654
vt 0.516540 0.459654
vt 0.022017 0.584348
vt 0.022017 0.568224
vt 0.050165 0.568224
vt 0.050165 0.584348
vt 0.094198 0.584348
vt 0.094198 0.568224
vt 0.122346 0.568224
vt 0.122346 0.584348
vt 0.830682 0.407331
vt 0.788845 0.407331
vt 0.788845 0.365494
vt 0.830682 0.365494
vt 0.830682 0.493200
vt 0.788845 0.493200
vt 0.788845 0.451364
vt 0.830682 0.451364
vt 0.610060 0.560599
vt 0.610060 0.602436
vt 0.568224 0.602436
vt 0.568224 0.560599
vt 0.744812 0.022017
vt 0.744812 0.063853
vt 0.702976 0.063853
vt 0.702976 0.022017
vt 0.702976 0.107886
vt 0.744812 0.107886
vt 0.744812 0.149722
vt 0.702976 0.149722
vt 0.830682 0.537233
vt 0.830682 0.579070
vt 0.788845 0.579070
vt 0.788845 0.537233
vt 0.830682 0.664939
vt 0.788845 0.664939
vt 0.788845 0.623103
vt 0.830682 0.623103
vt 0.235592 0.750839
vt 0.193756 0.750839
vt 0.193756 0.709002
vt 0.235592 0.709002
vt 0.744812 0.193756
vt 0.744812 0.235592
vt 0.702976 0.235592
vt 0.702976 0.193756
vt 0.321461 0.750839
vt 0.279625 0.750839
vt 0.279625 0.709002
vt 0.321461 0.709002
vt 0.407331 0.709002
vt 0.407331 0.750839
vt 0.365494 0.750839
vt 0.365494 0.709002
vt 0.493200 0.709002
vt 0.493200 0.750839
vt 0.451364 0.750839
vt 0.451364 0.709002
vt 0.830682 0.750809
vt 0.788845 0.750809
vt 0.788845 0.708972
vt 0.830682 0.708972
vt 0.744812 0.279625
vt 0.744812 0.321461
vt 0.702976 0.321461
vt 0.702976 0.279625
vt 0.744812 0.365494
vt 0.744812 0.407331
vt 0.702976 0.407331
vt 0.702976 0.365494
vt 0.022017 0.836708
vt 0.022017 0.794872
vt 0.063853 0.794872
vt 0.063853 0.836708
vt 0.149722 0.836708
vt 0.107886 0.836708
vt 0.107886 0.794872
vt 0.149722 0.794872
vt 0.702976 0.451364
vt 0.744812 0.451364
vt 0.744812 0.493200
vt 0.702976 0.493200
vt 0.193755 0.836708
vt 0.193755 0.794872
vt 0.235592 0.794872
vt 0.235592 0.836708
vt 0.279625 0.836708
vt 0.279625 0.794872
vt 0.321461 0.794872
vt 0.321461 0.836708
vt 0.365494 0.836708
vt 0.365494 0.794872
vt 0.407331 0.794872
vt 0.407331 0.836708
vt 0.744812 0.537233
vt 0.744812 0.579070
vt 0.702976 0.579070
vt 0.702976 0.537234
vt 0.493200 0.836708
vt 0.451364 0.836708
vt 0.451364 0.794872
vt 0.493200 0.794872
vt 0.579070 0.709002
vt 0.579070 0.750839
vt 0.537233 0.750839
vt 0.537233 0.709002
vt 0.537233 0.836708
vt 0.537233 0.794872
vt 0.579070 0.794872
vt 0.579070 0.836708
vt 0.664939 0.750839
vt 0.623103 0.750839
vt 0.623103 0.709002
vt 0.664939 0.709002
vt 0.623103 0.836708
vt 0.623103 0.794872
vt 0.664939 0.794872
vt 0.664939 0.836708
vt 0.830682 0.022017
vt 0.830682 0.063853
vt 0.788845 0.063853
vt 0.788845 0.022017
vt 0.788845 0.107886
vt 0.830682 0.107886
vt 0.830682 0.149722
vt 0.788845 0.149722
vt 0.788845 0.193755
vt 0.830682 0.193755
vt 0.830682 0.235592
vt 0.788845 0.235592
vt 0.708972 0.836708
vt 0.708972 0.794872
vt 0.750809 0.794872
vt 0.750809 0.836708
vt 0.744812 0.623103
vt 0.744812 0.664939
vt 0.702976 0.664939
vt 0.702976 0.623103
vt 0.916551 0.063853
vt 0.874715 0.063853
vt 0.874715 0.022017
vt 0.916551 0.022017
vt 0.916551 0.149722
vt 0.874715 0.149722
vt 0.874715 0.107886
vt 0.916551 0.107886
vt 0.788845 0.279625
vt 0.830682 0.279625
vt 0.830682 0.321461
vt 0.788845 0.321461
vt 0.916551 0.193755
vt 0.916551 0.235592
vt 0.874715 0.235592
vt 0.874715 0.193755
vt 0.916551 0.321461
vt 0.874715 0.321461
vt 0.874715 0.279625
vt 0.916551 0.279625
vt 0.916551 0.407331
vt 0.874715 0.407331
vt 0.874715 0.365494
vt 0.916551 0.365494
vt 0.916551 0.493200
vt 0.874715 0.493200
vt 0.874715 0.451364
vt 0.916551 0.451364
vt 0.063853 0.750839
vt 0.022017 0.750839
vt 0.022017 0.709002
vt 0.063853 0.709002
vt 0.916551 0.537233
vt 0.916551 0.579070
vt 0.874715 0.579070
vt 0.874715 0.537233
vt 0.916551 0.623103
vt 0.916551 0.664939
vt 0.874715 0.664939
vt 0.874715 0.623103
vt 0.960584 0.632694
vt 0.976394 0.632694
vt 0.976394 0.648504
vt 0.960584 0.648504
vt 0.976394 0.453167
vt 0.976394 0.468976
vt 0.960584 0.468976
vt 0.960584 0.453167
vt 0.311624 0.368365
vt 0.220905 0.368365
vt 0.220905 0.352555
vt 0.311624 0.352555
vt 0.166379 0.658943
vt 0.166379 0.568224
vt 0.182188 0.568224
vt 0.182188 0.658943
vt 0.226222 0.658943
vt 0.226222 0.568224
vt 0.242031 0.568224
vt 0.242031 0.658943
vt 0.286064 0.658943
vt 0.286064 0.568224
vt 0.301874 0.568224
vt 0.301874 0.658943
vt 0.916551 0.750809
vt 0.874715 0.750809
vt 0.874715 0.708972
vt 0.916551 0.708972
vt 0.149722 0.750839
vt 0.107886 0.750839
vt 0.107886 0.709002
vt 0.149722 0.709002
vt 0.916551 0.836678
vt 0.874715 0.836678
vt 0.874715 0.794842
vt 0.916551 0.794842
vt 0.022017 0.922578
vt 0.022017 0.880741
vt 0.063853 0.880741
vt 0.063853 0.922578
vt 0.149722 0.922578
vt 0.107886 0.922578
vt 0.107886 0.880741
vt 0.149722 0.880741
vt 0.235592 0.922578
vt 0.193756 0.922578
vt 0.193756 0.880741
vt 0.235592 0.880741
vt 0.976393 0.513009
vt 0.976393 0.528819
vt 0.960584 0.528819
vt 0.960584 0.513009
vt 0.976394 0.572852
vt 0.976394 0.588661
vt 0.960584 0.588661
vt 0.960584 0.572852
vt 0.345907 0.658943
vt 0.345907 0.568224
vt 0.361716 0.568224
vt 0.361716 0.658943
vt 0.405749 0.658943
vt 0.405749 0.568224
vt 0.421559 0.568224
vt 0.421559 0.658943
vt 0.465592 0.658943
vt 0.465592 0.568224
vt 0.481401 0.568224
vt 0.481401 0.658943
vt 0.658943 0.037826
vt 0.568224 0.037826
vt 0.568224 0.022017
vt 0.658943 0.022017
vt 0.976394 0.692537
vt 0.976394 0.708346
vt 0.960584 0.708346
vt 0.960584 0.692537
vt 0.976394 0.752379
vt 0.976394 0.768189
vt 0.960584 0.768189
vt 0.960584 0.752379
vt 0.658943 0.337039
vt 0.568224 0.337039
vt 0.568224 0.321229
vt 0.658943 0.321229
vt 0.658943 0.097668
vt 0.568224 0.097668
vt 0.568224 0.081859
vt 0.658943 0.081859
vt 0.658943 0.396881
vt 0.568224 0.396881
vt 0.568224 0.381072
vt 0.658943 0.381072
vt 0.658943 0.157511
vt 0.568224 0.157511
vt 0.568224 0.141702
vt 0.658943 0.141702
vt 0.976394 0.812222
vt 0.976394 0.828031
vt 0.960584 0.828031
vt 0.960584 0.812222
vt 0.976394 0.872064
vt 0.976394 0.887874
vt 0.960584 0.887874
vt 0.960584 0.872064
vt 0.658943 0.456724
vt 0.568224 0.456724
vt 0.568224 0.440914
vt 0.658943 0.440914
vt 0.658943 0.217354
vt 0.568224 0.217354
vt 0.568224 0.201544
vt 0.658943 0.201544
vt 0.658943 0.516566
vt 0.568224 0.516566
vt 0.568224 0.500757
vt 0.658943 0.500757
vt 0.658943 0.277196
vt 0.568224 0.277196
vt 0.568224 0.261387
vt 0.658943 0.261387
vt 0.248962 0.976773
vt 0.238799 0.976773
vt 0.238799 0.966611
vt 0.248962 0.966611
vt 0.303157 0.976773
vt 0.292995 0.976773
vt 0.292995 0.966611
vt 0.303157 0.966611
vt 0.767386 0.910765
vt 0.767386 0.880741
vt 0.777548 0.880741
vt 0.777548 0.910765
vt 0.442212 0.910765
vt 0.442212 0.880741
vt 0.452374 0.880741
vt 0.452374 0.910765
vt 0.821581 0.910765
vt 0.821581 0.880741
vt 0.831744 0.880741
vt 0.831744 0.910765
vt 0.496408 0.910765
vt 0.496408 0.880741
vt 0.506570 0.880741
vt 0.506570 0.910765
vt 0.032179 0.976773
vt 0.022017 0.976773
vt 0.022017 0.966611
vt 0.032179 0.966611
vt 0.086375 0.976773
vt 0.076212 0.976773
vt 0.076212 0.966611
vt 0.086375 0.966611
vt 0.658994 0.910765
vt 0.658994 0.880741
vt 0.669157 0.880741
vt 0.669157 0.910765
vt 0.550603 0.910765
vt 0.550603 0.880741
vt 0.560766 0.880741
vt 0.560766 0.910765
vt 0.713190 0.910765
vt 0.713190 0.880741
vt 0.723353 0.880741
vt 0.723353 0.910765
vt 0.604799 0.910765
vt 0.604799 0.880741
vt 0.614961 0.880741
vt 0.614961 0.910765
vt 0.140570 0.976773
vt 0.130408 0.976773
vt 0.130408 0.966611
vt 0.140570 0.966611
vt 0.184603 0.966611
vt 0.194766 0.966611
vt 0.194766 0.976773
vt 0.184603 0.976773
vt 0.343983 0.880741
vt 0.343983 0.910765
vt 0.333821 0.910765
vt 0.333821 0.880741
vt 0.568224 0.646469
vt 0.598247 0.646469
vt 0.598247 0.656631
vt 0.568224 0.656631
vt 0.388016 0.910765
vt 0.388016 0.880741
vt 0.398179 0.880741
vt 0.398179 0.910765
vt 0.279625 0.910765
vt 0.279625 0.880741
vt 0.289788 0.880741
vt 0.289788 0.910765
vt 0.094198 0.664969
vt 0.094198 0.648845
vt 0.122346 0.648845
vt 0.122346 0.664969
vt 0.094198 0.632721
vt 0.122346 0.632721
vt 0.094198 0.616597
vt 0.122346 0.616597
vt 0.094198 0.600472
vt 0.122346 0.600472
vt 0.022017 0.664969
vt 0.022017 0.648845
vt 0.050165 0.648845
vt 0.050165 0.664969
vt 0.022017 0.632721
vt 0.050165 0.632721
vt 0.022017 0.616597
vt 0.050165 0.616597
vt 0.022017 0.600472
vt 0.050165 0.600472
vt 0.516540 0.318876
vt 0.516540 0.335000
vt 0.419794 0.335000
vt 0.419794 0.318876
vt 0.516540 0.351124
vt 0.419794 0.351124
vt 0.516540 0.367248
vt 0.419794 0.367248
vt 0.516540 0.383373
vt 0.419794 0.383373
vt 0.151063 0.375761
vt 0.131693 0.346706
vt 0.125254 0.375761
vt 0.115569 0.346706
vt 0.099444 0.375761
vt 0.099444 0.346706
vt 0.073635 0.375761
vt 0.083320 0.346706
vt 0.047826 0.220905
vt 0.067196 0.249960
vt 0.073635 0.220905
vt 0.083320 0.249960
vt 0.099444 0.220905
vt 0.099444 0.249960
vt 0.125254 0.220905
vt 0.115569 0.249960
vt 0.220905 0.086606
vt 0.246715 0.086606
vt 0.246715 0.107162
vt 0.220905 0.107162
vt 0.272524 0.086606
vt 0.272524 0.107162
vt 0.298333 0.086606
vt 0.298333 0.107162
vt 0.324143 0.086606
vt 0.324143 0.107162
vt 0.064646 0.151643
vt 0.047826 0.176872
vt 0.082045 0.151643
vt 0.073635 0.176872
vt 0.099444 0.151643
vt 0.099444 0.176872
vt 0.116844 0.151643
vt 0.125254 0.176872
vt 0.151063 0.022017
vt 0.116844 0.047246
vt 0.125254 0.022017
vt 0.099444 0.047246
vt 0.099444 0.022017
vt 0.082045 0.047246
vt 0.073635 0.022017
vt 0.220905 0.022017
vt 0.246715 0.022017
vt 0.246715 0.042573
vt 0.220905 0.042573
vt 0.272524 0.022017
vt 0.272524 0.042573
vt 0.298333 0.022017
vt 0.298333 0.042573
vt 0.324143 0.022017
vt 0.324143 0.042573
vt 0.524191 0.170446
vt 0.524191 0.187846
vt 0.419794 0.187846
vt 0.419794 0.170446
vt 0.524191 0.205245
vt 0.419794 0.205245
vt 0.524191 0.222644
vt 0.419794 0.222644
vt 0.524191 0.240044
vt 0.419794 0.240044
vt 0.047246 0.064646
vt 0.064646 0.064646
vt 0.082045 0.064646
vt 0.099444 0.064646
vt 0.116844 0.064646
vt 0.170446 0.437194
vt 0.170446 0.419794
vt 0.187846 0.419794
vt 0.187846 0.437194
vt 0.205245 0.419794
vt 0.205245 0.437194
vt 0.222644 0.419794
vt 0.222644 0.437194
vt 0.240044 0.419794
vt 0.240044 0.437194
vt 0.240044 0.524191
vt 0.240044 0.506791
vt 0.257443 0.506791
vt 0.257443 0.524191
vt 0.240044 0.489392
vt 0.257443 0.489392
vt 0.240044 0.471992
vt 0.257443 0.471992
vt 0.240044 0.454593
vt 0.257443 0.454593
vt 0.222644 0.524191
vt 0.222644 0.506791
vt 0.222644 0.489392
vt 0.222644 0.471992
vt 0.222644 0.454593
vt 0.205245 0.524191
vt 0.205245 0.506791
vt 0.205245 0.489392
vt 0.205245 0.471992
vt 0.205245 0.454593
vt 0.187846 0.524191
vt 0.187846 0.506791
vt 0.187846 0.489392
vt 0.187846 0.471992
vt 0.187846 0.454593
vt 0.170446 0.524191
vt 0.170446 0.506791
vt 0.170446 0.489392
vt 0.170446 0.471992
vt 0.170446 0.454593
vt 0.116844 0.134243
vt 0.134243 0.134243
vt 0.116844 0.116844
vt 0.134243 0.116844
vt 0.116844 0.099444
vt 0.134243 0.099444
vt 0.642280 0.663868
vt 0.642280 0.646469
vt 0.651064 0.646469
vt 0.651064 0.663868
vt 0.116844 0.082045
vt 0.134243 0.082045
vt 0.099444 0.134243
vt 0.099444 0.116844
vt 0.099444 0.099444
vt 0.099444 0.082045
vt 0.082045 0.134243
vt 0.082045 0.116844
vt 0.082045 0.099444
vt 0.082045 0.082045
vt 0.064646 0.134243
vt 0.064646 0.116844
vt 0.064646 0.099444
vt 0.977983 0.092233
vt 0.960584 0.092233
vt 0.960584 0.083449
vt 0.977983 0.083449
vt 0.064646 0.082045
vt 0.047246 0.134243
vt 0.047246 0.116844
vt 0.047246 0.099444
vt 0.047246 0.082045
vt 0.151643 0.134243
vt 0.151643 0.116844
vt 0.151643 0.099444
vt 0.151643 0.082045
vt 0.524191 0.126413
vt 0.506791 0.126413
vt 0.506791 0.022017
vt 0.524191 0.022017
vt 0.489392 0.126413
vt 0.489392 0.022017
vt 0.471992 0.126413
vt 0.471992 0.022017
vt 0.454593 0.126413
vt 0.454593 0.022017
vt 0.274843 0.506791
vt 0.274843 0.524191
vt 0.274843 0.489392
vt 0.274843 0.471992
vt 0.274843 0.454593
vt 0.022017 0.524191
vt 0.022017 0.506791
vt 0.126413 0.506791
vt 0.126413 0.524191
vt 0.022017 0.489392
vt 0.126413 0.489392
vt 0.022017 0.471992
vt 0.126413 0.471992
vt 0.022017 0.454593
vt 0.126413 0.454593
vt 0.893176 0.898141
vt 0.875777 0.898141
vt 0.875777 0.880741
vt 0.893176 0.880741
vt 0.977983 0.039416
vt 0.960584 0.039416
vt 0.960584 0.022017
vt 0.977983 0.022017
vt 0.977983 0.145050
vt 0.960584 0.145050
vt 0.960584 0.136266
vt 0.977983 0.136266
vt 0.977983 0.409134
vt 0.960584 0.409134
vt 0.960584 0.400350
vt 0.977983 0.400350
vt 0.977983 0.197866
vt 0.960584 0.197866
vt 0.960584 0.189083
vt 0.977983 0.189083
vt 0.977983 0.250683
vt 0.960584 0.250683
vt 0.960584 0.241899
vt 0.977983 0.241899
vt 0.960584 0.294716
vt 0.977983 0.294716
vt 0.977983 0.303500
vt 0.960584 0.303500
vt 0.960584 0.347533
vt 0.977983 0.347533
vt 0.977983 0.356317
vt 0.960584 0.356317
s 0
usemtl Material.005
f 209/1/1 2/2/1 4/3/1 210/4/1
f 270/5/2 154/6/2 8/7/2 215/8/2
f 215/9/3 8/10/3 6/11/3 220/12/3
f 245/13/4 164/14/4 2/15/4 209/16/4
f 145/17/5 7/18/5 5/19/5 159/20/5
f 4/21/5 2/15/5 9/22/5 10/23/5
f 170/24/4 12/25/4 16/26/4 180/27/4
f 160/28/5 6/29/5 12/30/5 170/31/5
f 150/32/5 4/21/5 10/23/5 165/33/5
f 6/29/5 8/34/5 11/35/5 12/30/5
f 16/36/6 15/37/6 19/38/6 20/39/6
f 165/40/2 10/41/2 14/42/2 175/43/2
f 12/44/3 11/45/3 15/46/3 16/47/3
f 10/48/1 9/49/1 13/50/1 14/51/1
f 20/52/1 19/53/1 23/54/1 24/55/1
f 14/56/6 13/57/6 17/58/6 18/59/6
f 180/60/6 16/36/6 20/39/6 190/61/6
f 175/62/6 14/56/6 18/59/6 185/63/6
f 195/64/6 22/65/6 21/66/6 204/67/6
f 18/68/3 17/69/3 21/70/3 22/71/3
f 190/72/2 20/73/2 24/74/2 200/75/2
f 185/76/4 18/77/4 22/78/4 195/79/4
f 25/80/1 26/81/1 28/82/1 27/83/1
f 27/84/2 28/85/2 32/86/2 31/87/2
f 31/88/3 32/89/3 30/90/3 29/91/3
f 29/92/4 30/93/4 26/94/4 25/95/4
f 27/96/5 31/97/5 29/98/5 25/99/5
f 32/100/6 28/101/6 26/102/6 30/103/6
f 33/104/1 34/105/1 36/106/1 35/107/1
f 35/108/2 36/109/2 40/110/2 39/111/2
f 39/112/3 40/113/3 38/114/3 37/115/3
f 37/116/4 38/117/4 34/118/4 33/119/4
f 35/120/5 39/121/5 37/122/5 33/123/5
f 40/124/6 36/125/6 34/126/6 38/127/6
f 41/128/1 42/129/1 44/130/1 43/131/1
f 43/132/2 44/133/2 48/134/2 47/135/2
f 47/136/3 48/137/3 46/138/3 45/139/3
f 45/140/4 46/141/4 42/142/4 41/143/4
f 43/144/5 47/145/5 45/146/5 41/147/5
f 48/148/6 44/149/6 42/150/6 46/151/6
f 49/152/1 50/153/1 52/154/1 51/155/1
f 51/156/2 52/157/2 56/158/2 55/159/2
f 55/160/3 56/161/3 54/162/3 53/163/3
f 53/164/4 54/165/4 50/166/4 49/167/4
f 51/168/5 55/169/5 53/170/5 49/171/5
f 56/172/6 52/173/6 50/174/6 54/175/6
f 57/176/1 58/177/1 60/178/1 59/179/1
f 59/180/2 60/181/2 64/182/2 63/183/2
f 63/184/3 64/185/3 62/186/3 61/187/3
f 61/188/4 62/189/4 58/190/4 57/191/4
f 59/192/5 63/193/5 61/194/5 57/195/5
f 64/196/6 60/197/6 58/198/6 62/199/6
f 65/200/1 66/201/1 68/202/1 67/203/1
f 67/204/2 68/205/2 72/206/2 71/207/2
f 71/208/3 72/209/3 70/210/3 69/211/3
f 69/212/4 70/213/4 66/214/4 65/215/4
f 67/216/5 71/217/5 69/218/5 65/219/5
f 72/220/6 68/221/6 66/222/6 70/223/6
f 73/224/1 74/225/1 76/226/1 75/227/1
f 75/228/2 76/229/2 80/230/2 79/231/2
f 79/232/3 80/233/3 78/234/3 77/235/3
f 77/236/4 78/237/4 74/238/4 73/239/4
f 75/240/5 79/241/5 77/242/5 73/243/5
f 80/244/6 76/245/6 74/246/6 78/247/6
f 81/248/6 85/249/6 87/250/6 83/251/6
f 86/252/5 82/253/5 84/254/5 88/255/5
f 84/256/4 83/257/4 87/258/4 88/259/4
f 82/260/3 81/261/3 83/262/3 84/263/3
f 86/264/2 85/265/2 81/266/2 82/267/2
f 88/268/1 87/269/1 85/270/1 86/271/1
f 89/272/1 90/273/1 92/274/1 91/275/1
f 91/276/2 92/277/2 96/278/2 95/279/2
f 95/280/3 96/281/3 94/282/3 93/283/3
f 93/284/4 94/285/4 90/286/4 89/287/4
f 91/288/5 95/289/5 93/290/5 89/291/5
f 96/292/6 92/293/6 90/294/6 94/295/6
f 97/296/6 101/297/6 103/298/6 99/299/6
f 102/300/5 98/301/5 100/302/5 104/303/5
f 100/304/4 99/305/4 103/306/4 104/307/4
f 98/308/3 97/309/3 99/310/3 100/311/3
f 102/312/2 101/313/2 97/314/2 98/315/2
f 104/316/1 103/317/1 101/318/1 102/319/1
f 105/320/6 109/321/6 111/322/6 107/323/6
f 110/324/5 106/325/5 108/326/5 112/327/5
f 108/328/4 107/329/4 111/330/4 112/331/4
f 106/332/3 105/333/3 107/334/3 108/335/3
f 110/336/2 109/337/2 105/338/2 106/339/2
f 112/340/1 111/341/1 109/342/1 110/343/1
f 113/344/6 117/345/6 119/346/6 115/347/6
f 118/348/5 114/349/5 116/350/5 120/351/5
f 116/352/4 115/353/4 119/354/4 120/355/4
f 114/356/3 113/357/3 115/358/3 116/359/3
f 118/360/2 117/361/2 113/362/2 114/363/2
f 120/364/1 119/365/1 117/366/1 118/367/1
f 121/368/6 125/369/6 127/370/6 123/371/6
f 126/372/5 122/373/5 124/374/5 128/375/5
f 124/376/4 123/377/4 127/378/4 128/379/4
f 122/380/3 121/381/3 123/382/3 124/383/3
f 126/384/2 125/385/2 121/386/2 122/387/2
f 128/388/1 127/389/1 125/390/1 126/391/1
f 129/392/6 133/393/6 135/394/6 131/395/6
f 134/396/5 130/397/5 132/398/5 136/399/5
f 132/400/4 131/401/4 135/402/4 136/403/4
f 130/404/3 129/405/3 131/406/3 132/407/3
f 134/408/2 133/409/2 129/410/2 130/411/2
f 136/412/1 135/413/1 133/414/1 134/415/1
f 137/416/3 141/417/3 143/418/3 139/419/3
f 142/420/1 138/421/1 140/422/1 144/423/1
f 140/424/4 139/425/4 143/426/4 144/427/4
f 138/428/5 137/429/5 139/430/5 140/431/5
f 142/432/2 141/433/2 137/434/2 138/435/2
f 144/436/6 143/437/6 141/438/6 142/439/6
f 19/440/4 189/441/4 199/442/4 23/443/4
f 189/441/4 188/444/4 198/445/4 199/442/4
f 188/444/4 187/446/4 197/447/4 198/445/4
f 187/446/4 186/448/4 196/449/4 197/447/4
f 186/448/4 185/76/4 195/79/4 196/449/4
f 17/450/2 194/451/2 204/452/2 21/453/2
f 194/451/2 193/454/2 203/455/2 204/452/2
f 193/454/2 192/456/2 202/457/2 203/455/2
f 192/456/2 191/458/2 201/459/2 202/457/2
f 191/458/2 190/72/2 200/75/2 201/459/2
f 23/460/6 199/461/6 200/462/6 24/463/6
f 199/461/6 198/464/6 201/465/6 200/462/6
f 198/464/6 197/466/6 202/467/6 201/465/6
f 197/466/6 196/468/6 203/469/6 202/467/6
f 196/468/6 195/64/6 204/67/6 203/469/6
f 15/37/6 179/470/6 189/471/6 19/38/6
f 179/470/6 178/472/6 188/473/6 189/471/6
f 178/472/6 177/474/6 187/475/6 188/473/6
f 177/474/6 176/476/6 186/477/6 187/475/6
f 176/476/6 175/62/6 185/63/6 186/477/6
f 13/57/6 184/478/6 194/479/6 17/58/6
f 184/478/6 183/480/6 193/481/6 194/479/6
f 183/480/6 182/482/6 192/483/6 193/481/6
f 182/482/6 181/484/6 191/485/6 192/483/6
f 181/484/6 180/60/6 190/61/6 191/485/6
f 11/486/2 169/487/2 179/488/2 15/489/2
f 169/487/2 168/490/2 178/491/2 179/488/2
f 168/490/2 167/492/2 177/493/2 178/491/2
f 167/492/2 166/494/2 176/495/2 177/493/2
f 166/494/2 165/40/2 175/43/2 176/495/2
f 8/34/5 154/496/5 169/497/5 11/35/5
f 154/496/5 153/498/5 168/499/5 169/497/5
f 153/498/5 152/500/5 167/501/5 168/499/5
f 152/500/5 151/502/5 166/503/5 167/501/5
f 151/502/5 150/32/5 165/33/5 166/503/5
f 2/15/5 164/14/5 174/504/5 9/22/5
f 164/14/5 163/505/5 173/506/5 174/504/5
f 163/505/5 162/507/5 172/508/5 173/506/5
f 162/507/5 161/509/5 171/510/5 172/508/5
f 161/509/5 160/28/5 170/31/5 171/510/5
f 9/511/4 174/512/4 184/513/4 13/514/4
f 174/512/4 173/515/4 183/516/4 184/513/4
f 173/515/4 172/517/4 182/518/4 183/516/4
f 172/517/4 171/519/4 181/520/4 182/518/4
f 171/519/4 170/24/4 180/27/4 181/520/4
f 3/521/5 149/522/5 155/523/5 1/524/5
f 149/522/5 148/525/5 156/526/5 155/523/5
f 148/525/5 147/527/5 157/528/5 156/526/5
f 147/527/5 146/529/5 158/530/5 157/528/5
f 146/529/5 145/17/5 159/20/5 158/530/5
f 220/531/4 6/29/4 160/28/4 225/532/4
f 225/532/4 160/28/4 161/509/4 230/533/4
f 230/533/4 161/509/4 162/507/4 235/534/4
f 235/534/4 162/507/4 163/505/4 240/535/4
f 240/535/4 163/505/4 164/14/4 245/13/4
f 210/536/2 4/537/2 150/538/2 250/539/2
f 250/539/2 150/538/2 151/540/2 255/541/2
f 255/541/2 151/540/2 152/542/2 260/543/2
f 260/543/2 152/542/2 153/544/2 265/545/2
f 265/545/2 153/544/2 154/6/2 270/5/2
f 146/546/2 269/547/2 274/548/2 145/549/2
f 269/547/2 268/550/2 273/551/2 274/548/2
f 268/550/2 267/552/2 272/553/2 273/551/2
f 267/552/2 266/554/2 271/555/2 272/553/2
f 266/554/2 265/545/2 270/5/2 271/555/2
f 147/556/2 264/557/2 269/547/2 146/546/2
f 264/557/2 263/558/2 268/550/2 269/547/2
f 263/558/2 262/559/2 267/552/2 268/550/2
f 262/559/2 261/560/2 266/554/2 267/552/2
f 261/560/2 260/543/2 265/545/2 266/554/2
f 148/561/2 259/562/2 264/557/2 147/556/2
f 259/562/2 258/563/2 263/558/2 264/557/2
f 258/563/2 257/564/2 262/559/2 263/558/2
f 257/564/2 256/565/2 261/560/2 262/559/2
f 256/565/2 255/541/2 260/543/2 261/560/2
f 149/566/2 254/567/2 259/562/2 148/561/2
f 254/567/2 253/568/2 258/563/2 259/562/2
f 253/568/2 252/569/2 257/564/2 258/563/2
f 252/569/2 251/570/2 256/565/2 257/564/2
f 251/570/2 250/539/2 255/541/2 256/565/2
f 3/571/2 214/572/2 254/567/2 149/566/2
f 214/572/2 213/573/2 253/568/2 254/567/2
f 213/573/2 212/574/2 252/569/2 253/568/2
f 212/574/2 211/575/2 251/570/2 252/569/2
f 211/575/2 210/536/2 250/539/2 251/570/2
f 156/502/4 244/576/4 249/577/4 155/32/4
f 244/576/4 243/578/4 248/579/4 249/577/4
f 243/578/4 242/580/4 247/581/4 248/579/4
f 241/582/5 246/583/5 281/584/5 279/585/5
f 241/586/4 240/535/4 245/13/4 246/587/4
f 157/500/4 239/588/4 244/576/4 156/502/4
f 239/588/4 238/589/4 243/578/4 244/576/4
f 238/589/4 237/590/4 242/580/4 243/578/4
f 237/590/4 236/591/4 241/586/4 242/580/4
f 236/591/4 235/534/4 240/535/4 241/586/4
f 158/498/4 234/592/4 239/588/4 157/500/4
f 234/592/4 233/593/4 238/589/4 239/588/4
f 233/593/4 232/594/4 237/590/4 238/589/4
f 232/594/4 231/595/4 236/591/4 237/590/4
f 231/595/4 230/533/4 235/534/4 236/591/4
f 159/496/4 229/596/4 234/592/4 158/498/4
f 229/596/4 228/597/4 233/593/4 234/592/4
f 228/597/4 227/598/4 232/594/4 233/593/4
f 226/599/5 231/600/5 277/601/5 275/602/5
f 226/603/4 225/532/4 230/533/4 231/595/4
f 5/34/4 224/604/4 229/596/4 159/496/4
f 224/604/4 223/605/4 228/597/4 229/596/4
f 223/605/4 222/606/4 227/598/4 228/597/4
f 222/606/4 221/607/4 226/603/4 227/598/4
f 221/607/4 220/531/4 225/532/4 226/603/4
f 155/32/4 249/577/4 205/608/4 1/21/4
f 249/577/4 248/579/4 206/609/4 205/608/4
f 248/579/4 247/581/4 207/610/4 206/609/4
f 247/581/4 246/587/4 208/611/4 207/610/4
f 246/587/4 245/13/4 209/16/4 208/611/4
f 7/612/3 219/613/3 224/614/3 5/615/3
f 219/613/3 218/616/3 223/617/3 224/614/3
f 218/616/3 217/618/3 222/619/3 223/617/3
f 217/618/3 216/620/3 221/621/3 222/619/3
f 216/620/3 215/9/3 220/12/3 221/621/3
f 145/549/2 274/548/2 219/622/2 7/623/2
f 274/548/2 273/551/2 218/624/2 219/622/2
f 273/551/2 272/553/2 217/625/2 218/624/2
f 272/553/2 271/555/2 216/626/2 217/625/2
f 271/555/2 270/5/2 215/8/2 216/626/2
f 1/627/1 205/628/1 214/629/1 3/630/1
f 205/628/1 206/631/1 213/632/1 214/629/1
f 206/631/1 207/633/1 212/634/1 213/632/1
f 207/633/1 208/635/1 211/636/1 212/634/1
f 208/635/1 209/1/1 210/4/1 211/636/1
f 280/637/4 279/638/4 281/639/4 282/640/4
f 276/641/4 275/642/4 277/643/4 278/644/4
f 242/645/1 241/646/1 279/647/1 280/648/1
f 232/649/6 227/650/6 276/651/6 278/652/6
f 227/653/1 226/654/1 275/655/1 276/656/1
f 247/657/6 242/658/6 280/659/6 282/660/6
f 246/661/3 247/662/3 282/663/3 281/664/3
f 231/665/3 232/666/3 278/667/3 277/668/3
